<svg xmlns="http://www.w3.org/2000/svg" xmlns:xlink="http://www.w3.org/1999/xlink" width="500" zoomAndPan="magnify" viewBox="0 0 375 374.999991" height="500" preserveAspectRatio="xMidYMid meet" version="1.0"><defs><clipPath id="ed17d33956"><path d="M 83.550781 83.550781 L 291.449219 83.550781 L 291.449219 291.449219 L 83.550781 291.449219 Z M 83.550781 83.550781 " clip-rule="nonzero"/></clipPath><clipPath id="6b2505b4ce"><path d="M 187.5 83.550781 L 291.449219 187.5 L 187.5 291.449219 L 83.550781 187.5 Z M 187.5 83.550781 " clip-rule="nonzero"/></clipPath><clipPath id="e4aed79cec"><path d="M 128.96875 130.804688 L 246 130.804688 L 246 244.195312 L 128.96875 244.195312 Z M 128.96875 130.804688 " clip-rule="nonzero"/></clipPath><clipPath id="4ae530d297"><path d="M 187.5 130.804688 C 155.171875 130.804688 128.96875 156.1875 128.96875 187.5 C 128.96875 218.8125 155.171875 244.195312 187.5 244.195312 C 219.828125 244.195312 246.03125 218.8125 246.03125 187.5 C 246.03125 156.1875 219.828125 130.804688 187.5 130.804688 Z M 187.5 130.804688 " clip-rule="nonzero"/></clipPath><clipPath id="97b274b4b1"><path d="M 152 184 L 223 184 L 223 229.988281 L 152 229.988281 Z M 152 184 " clip-rule="nonzero"/></clipPath><clipPath id="d5b17f304b"><path d="M 142 145.226562 L 233 145.226562 L 233 183 L 142 183 Z M 142 145.226562 " clip-rule="nonzero"/></clipPath></defs><g clip-path="url(#ed17d33956)"><g clip-path="url(#6b2505b4ce)"><path fill="#8b0000" d="M 83.550781 83.550781 L 291.449219 83.550781 L 291.449219 291.449219 L 83.550781 291.449219 Z M 83.550781 83.550781 " fill-opacity="1" fill-rule="nonzero"/></g></g><g clip-path="url(#e4aed79cec)"><g clip-path="url(#4ae530d297)"><path fill="#ffffff" d="M 128.96875 130.804688 L 245.902344 130.804688 L 245.902344 244.195312 L 128.96875 244.195312 Z M 128.96875 130.804688 " fill-opacity="1" fill-rule="nonzero"/></g></g><g clip-path="url(#97b274b4b1)"><path fill="#b88917" d="M 220.609375 229.761719 L 154.339844 229.761719 C 153.335938 229.761719 152.523438 228.949219 152.523438 227.949219 L 152.523438 186.648438 C 152.523438 185.644531 153.335938 184.828125 154.339844 184.828125 C 155.339844 184.828125 156.152344 185.644531 156.152344 186.648438 L 156.152344 226.132812 L 218.796875 226.132812 L 218.796875 186.648438 C 218.796875 185.644531 219.605469 184.828125 220.609375 184.828125 C 221.609375 184.828125 222.421875 185.644531 222.421875 186.648438 L 222.421875 227.949219 C 222.421875 228.949219 221.609375 229.761719 220.609375 229.761719 " fill-opacity="1" fill-rule="nonzero"/></g><g clip-path="url(#d5b17f304b)"><path fill="#b88917" d="M 231.003906 182.78125 C 230.613281 182.78125 230.222656 182.65625 229.890625 182.398438 L 187.472656 149.472656 L 145.054688 182.398438 C 144.261719 183.011719 143.125 182.871094 142.507812 182.078125 C 141.894531 181.285156 142.039062 180.148438 142.828125 179.535156 L 186.359375 145.746094 C 187.019531 145.238281 187.929688 145.238281 188.585938 145.746094 L 232.117188 179.535156 C 232.90625 180.148438 233.050781 181.285156 232.4375 182.078125 C 232.082031 182.539062 231.542969 182.78125 231.003906 182.78125 " fill-opacity="1" fill-rule="nonzero"/></g></svg>