<svg xmlns="http://www.w3.org/2000/svg" xmlns:xlink="http://www.w3.org/1999/xlink" width="500" zoomAndPan="magnify" viewBox="0 0 375 374.999991" height="500" preserveAspectRatio="xMidYMid meet" version="1.0"><defs><clipPath id="f586beb609"><path d="M 187.5 0 L 375 187.5 L 187.5 375 L 0 187.5 Z M 187.5 0 " clip-rule="nonzero"/></clipPath><clipPath id="0e04452653"><path d="M 81.917969 85.234375 L 293 85.234375 L 293 289.765625 L 81.917969 289.765625 Z M 81.917969 85.234375 " clip-rule="nonzero"/></clipPath><clipPath id="c104100e62"><path d="M 187.5 85.234375 C 129.191406 85.234375 81.917969 131.019531 81.917969 187.5 C 81.917969 243.980469 129.191406 289.765625 187.5 289.765625 C 245.808594 289.765625 293.082031 243.980469 293.082031 187.5 C 293.082031 131.019531 245.808594 85.234375 187.5 85.234375 Z M 187.5 85.234375 " clip-rule="nonzero"/></clipPath><clipPath id="dd2bd2f988"><path d="M 105.066406 111.25 L 270 111.25 L 270 179 L 105.066406 179 Z M 105.066406 111.25 " clip-rule="nonzero"/></clipPath></defs><g clip-path="url(#f586beb609)"><rect x="-37.5" width="450" fill="#8b0000" y="-37.499999" height="449.999989" fill-opacity="1"/></g><g clip-path="url(#0e04452653)"><g clip-path="url(#c104100e62)"><path fill="#ffffff" d="M 81.917969 85.234375 L 292.84375 85.234375 L 292.84375 289.765625 L 81.917969 289.765625 Z M 81.917969 85.234375 " fill-opacity="1" fill-rule="nonzero"/></g></g><path fill="#b88917" d="M 247.222656 263.730469 L 127.683594 263.730469 C 125.875 263.730469 124.414062 262.265625 124.414062 260.457031 L 124.414062 185.960938 C 124.414062 184.152344 125.875 182.683594 127.683594 182.683594 C 129.492188 182.683594 130.953125 184.152344 130.953125 185.960938 L 130.953125 257.1875 L 243.949219 257.1875 L 243.949219 185.960938 C 243.949219 184.152344 245.414062 182.683594 247.222656 182.683594 C 249.027344 182.683594 250.492188 184.152344 250.492188 185.960938 L 250.492188 260.457031 C 250.492188 262.265625 249.027344 263.730469 247.222656 263.730469 " fill-opacity="1" fill-rule="nonzero"/><g clip-path="url(#dd2bd2f988)"><path fill="#b88917" d="M 265.972656 178.984375 C 265.265625 178.984375 264.558594 178.765625 263.964844 178.300781 L 187.453125 118.910156 L 110.941406 178.300781 C 109.507812 179.40625 107.457031 179.148438 106.347656 177.722656 C 105.242188 176.292969 105.5 174.238281 106.925781 173.128906 L 185.445312 112.183594 C 186.628906 111.265625 188.273438 111.265625 189.460938 112.183594 L 267.980469 173.128906 C 269.40625 174.238281 269.664062 176.292969 268.554688 177.722656 C 267.914062 178.550781 266.945312 178.984375 265.972656 178.984375 " fill-opacity="1" fill-rule="nonzero"/></g></svg>